HIERARCHY
ROOT reference
{
  OFFSET 0 0 0
  CHANNELS 6 Xposition Yposition Zposition Zrotation Xrotation Yrotation
  JOINT Hips
  {
    OFFSET -7.71716 91.0384 278.379
    CHANNELS 6 Xposition Yposition Zposition Zrotation Xrotation Yrotation
    JOINT Spine
    {
      OFFSET 0 8.12958 0
      CHANNELS 6 Xposition Yposition Zposition Zrotation Xrotation Yrotation
      JOINT Spine1
      {
        OFFSET 0 26.3907 0
        CHANNELS 6 Xposition Yposition Zposition Zrotation Xrotation Yrotation
        JOINT Neck
        {
          OFFSET 0 26.2823 2.3893
          CHANNELS 6 Xposition Yposition Zposition Zrotation Xrotation Yrotation
          JOINT Head
          {
            OFFSET 0 13.8798 -1.98282
            CHANNELS 6 Xposition Yposition Zposition Zrotation Xrotation Yrotation
            End Site
            {
              OFFSET 0 24.7853 0
            }
          }
        }
        JOINT LeftShoulder
        {
          OFFSET 3.97789 23.5745 -0.27352
          CHANNELS 6 Xposition Yposition Zposition Zrotation Xrotation Yrotation
          JOINT LeftArm
          {
            OFFSET 13.7626 0 0
            CHANNELS 6 Xposition Yposition Zposition Zrotation Xrotation Yrotation
            JOINT LeftForeArm
            {
              OFFSET 26.1014 0 0
              CHANNELS 6 Xposition Yposition Zposition Zrotation Xrotation Yrotation
              JOINT LeftHand
              {
                OFFSET 29.9599 0 0
                CHANNELS 6 Xposition Yposition Zposition Zrotation Xrotation Yrotation
                End Site
                {
                  OFFSET 14.8712 0 0
                }
              }
            }
          }
        }
        JOINT RightShoulder
        {
          OFFSET -3.9517 23.5745 -0.27352
          CHANNELS 6 Xposition Yposition Zposition Zrotation Xrotation Yrotation
          JOINT RightArm
          {
            OFFSET -13.7626 0 0
            CHANNELS 6 Xposition Yposition Zposition Zrotation Xrotation Yrotation
            JOINT RightForeArm
            {
              OFFSET -26.1014 0 0
              CHANNELS 6 Xposition Yposition Zposition Zrotation Xrotation Yrotation
              JOINT RightHand
              {
                OFFSET -29.9599 0 0
                CHANNELS 6 Xposition Yposition Zposition Zrotation Xrotation Yrotation
                End Site
                {
                  OFFSET -14.8712 0 0
                }
              }
            }
          }
        }
      }
    }
    JOINT LeftUpLeg
    {
      OFFSET 9.91412 0 0
      CHANNELS 6 Xposition Yposition Zposition Zrotation Xrotation Yrotation
      JOINT LeftLeg
      {
        OFFSET 0 -41.4279 0
        CHANNELS 6 Xposition Yposition Zposition Zrotation Xrotation Yrotation
        JOINT LeftFoot
        {
          OFFSET 0 -41.0254 0
          CHANNELS 6 Xposition Yposition Zposition Zrotation Xrotation Yrotation
          JOINT LeftToeBase
          {
            OFFSET 0 -6.44418 14.8712
            CHANNELS 6 Xposition Yposition Zposition Zrotation Xrotation Yrotation
            End Site
            {
              OFFSET 0 0 3.96565
            }
          }
        }
      }
    }
    JOINT RightUpLeg
    {
      OFFSET -9.91412 0 0
      CHANNELS 6 Xposition Yposition Zposition Zrotation Xrotation Yrotation
      JOINT RightLeg
      {
        OFFSET 0 -41.4279 0
        CHANNELS 6 Xposition Yposition Zposition Zrotation Xrotation Yrotation
        JOINT RightFoot
        {
          OFFSET 0 -41.0254 0
          CHANNELS 6 Xposition Yposition Zposition Zrotation Xrotation Yrotation
          JOINT RightToeBase
          {
            OFFSET 0 -6.44418 14.8712
            CHANNELS 6 Xposition Yposition Zposition Zrotation Xrotation Yrotation
            End Site
            {
              OFFSET 0 0 3.96565
            }
          }
        }
      }
    }
  }
}
MOTION
Frames:	6
Frame Time:	0.004
0 0 0 0 0 -0 -27.0867 82.682 -206.52 -0.948651 -2.49355 -4.1885 0 8.12958 0 0.370901 2.02157 0.885818 0 26.3907 0 -0.447837 -6.04786 0.868692 0 26.2823 2.3893 -0.754308 11.7625 -3.55767 -7.10543e-015 13.8798 -1.98282 3.92263 -6.13509 -2.90401 3.97789 23.5745 -0.27352 9.71218 3.81272 2.32443 13.7626 2.84217e-014 2.84217e-014 -13.415 2.8997 4.42137 26.1014 0 0 -0.866898 0.007203 -0.952089 29.9599 0 0 7.66955 -0.148051 -2.08815 -3.9517 23.5745 -0.27352 -9.81638 1.43797 3.20318 -13.7626 0 2.84217e-014 12.7175 7.9887 -3.13038 -26.1014 0 -2.84217e-014 -3.70252 -1.04924 -0.45224 -29.9599 -2.84217e-014 0 -2.78901 -1.12482 2.5022 9.91412 -1.42109e-014 2.84217e-014 1.10877 8.78556 2.2725 -3.55271e-015 -41.4279 0 1.29962 -7.70906 9.51572 3.55271e-015 -41.0254 0 0.51185 -2.93306 9.06875 -7.10543e-015 -6.44418 14.8712 5.96354e-016 0 3.18055e-015 -9.91412 0 0 0.397692 4.90938 5.39584 0 -41.4279 0 0.315482 -2.28158 3.07338 0 -41.0254 0 -1.41804 -4.81892 -10.7104 0 -6.44418 14.8712 -0 0 7.95139e-016 
0 0 0 0 0 -0 -27.0867 82.682 -206.52 -0.948651 -2.49355 -4.1885 0 8.12958 0 0.37628 2.02157 0.889793 0 26.3907 -2.84217e-014 -0.453724 -6.04785 0.872507 0 26.2823 2.3893 -0.754308 11.7625 -3.55767 0 13.8798 -1.98282 3.9224 -6.13972 -2.90403 3.97789 23.5745 -0.27352 9.71547 3.81272 2.32443 13.7626 -2.84217e-014 0 -13.4149 2.89841 4.42136 26.1014 5.68434e-014 0 -0.862429 -0.009892 -0.961836 29.9599 2.84217e-014 0 7.6956 -0.156676 -2.08089 -3.9517 23.5745 -0.27352 -9.81711 1.43797 3.20318 -13.7626 0 0 12.717 7.99452 -3.12422 -26.1014 -2.84217e-014 -2.84217e-014 -3.70199 -1.07841 -0.442727 -29.9599 0 2.84217e-014 -2.86932 -1.15404 2.44643 9.91412 -1.42109e-014 2.84217e-014 1.11132 8.78566 2.25581 3.55271e-015 -41.4279 -2.84217e-014 1.29943 -7.70909 9.51429 1.77636e-015 -41.0254 0 0.505093 -2.933 9.07555 0 -6.44418 14.8712 5.96354e-016 -2.38542e-015 -0 -9.91412 0 0 0.399519 4.90615 5.37819 1.42109e-014 -41.4279 -2.84217e-014 0.315396 -2.28978 3.06025 7.10543e-015 -41.0254 -2.84217e-014 -1.3915 -4.81934 -10.6843 0 -6.44418 14.8712 -1.10348e-032 -7.95139e-016 -7.95139e-016 
0 0 0 0 0 -0 -27.0867 82.682 -206.52 -0.948651 -2.49355 -4.1885 0 8.12958 0 0.383686 2.02156 0.896163 0 26.3907 0 -0.472015 -6.04784 0.878114 -7.10543e-015 26.2823 2.3893 -0.742085 11.7625 -3.55767 -7.10543e-015 13.8798 -1.98282 3.91146 -6.14465 -2.90406 3.97789 23.5745 -0.27352 9.72417 3.81272 2.32443 13.7626 0 0 -13.4134 2.87893 4.42128 26.1014 -2.84217e-014 -2.84217e-014 -0.876337 0.033571 -0.967595 29.9599 -2.84217e-014 2.84217e-014 7.76347 -0.117584 -2.11764 -3.9517 23.5745 -0.27352 -9.79944 1.43797 3.20318 -13.7626 0 -2.84217e-014 12.7018 7.97982 -3.11482 -26.1014 2.84217e-014 0 -3.72772 -1.17018 -0.435258 -29.9599 0 2.84217e-014 -2.78372 -1.24108 2.33239 9.91412 -1.42109e-014 2.84217e-014 1.10963 8.78559 2.26689 3.55271e-015 -41.4279 -2.84217e-014 1.29479 -7.70986 9.47973 0 -41.0254 0 0.492009 -2.93285 9.09396 0 -6.44418 14.8712 1.98785e-016 0 -3.18055e-015 -9.91412 0 0 0.399352 4.91954 5.36559 7.10543e-015 -41.4279 0 0.31603 -2.29903 3.06373 7.10543e-015 -41.0254 2.84217e-014 -1.40103 -4.81928 -10.6877 0 -6.44418 14.8712 -4.41391e-032 -1.59028e-015 -1.59028e-015 
0 0 0 0 0 -0 -27.0867 82.682 -206.52 -0.948651 -2.49355 -4.1885 0 8.12958 0 0.386988 2.02156 0.899317 -7.10543e-015 26.3907 0 -0.476965 -6.04784 0.880838 0 26.2823 2.3893 -0.765447 11.7523 -3.55754 0 13.8798 -1.98282 3.93343 -6.12539 -2.90396 3.97789 23.5745 -0.27352 9.72701 3.81272 2.32443 13.7626 0 -2.84217e-014 -13.4139 2.90602 4.42139 26.1014 0 0 -0.875318 0.021418 -0.972273 29.9599 2.84217e-014 -2.84217e-014 7.79172 -0.131905 -2.12083 -3.9517 23.5745 -0.27352 -9.80978 1.43764 3.2154 -13.7626 0 0 12.7158 8.00321 -3.11985 -26.1014 0 -2.84217e-014 -3.7359 -1.18818 -0.428279 -29.9599 0 2.84217e-014 -2.80797 -1.25887 2.31382 9.91412 -1.42109e-014 2.84217e-014 1.11033 8.77519 2.26499 -3.55271e-015 -41.4279 0 1.29862 -7.70978 9.50763 -1.77636e-015 -41.0254 2.84217e-014 0.512745 -2.93308 9.06553 -7.10543e-015 -6.44418 14.8712 5.96354e-016 0 -6.36111e-015 -9.91412 0 0 0.400514 4.91146 5.3609 -7.10543e-015 -41.4279 2.84217e-014 0.316271 -2.30253 3.06506 0 -41.0254 2.84217e-014 -1.40146 -4.81931 -10.686 0 -6.44418 14.8712 1.98785e-016 0 -0 
0 0 0 0 0 -0 -27.0867 82.682 -206.52 -0.948651 -2.49355 -4.1885 7.10543e-015 8.12958 0 0.391016 2.02156 0.901978 0 26.3907 0 -0.479716 -6.04783 0.883622 0 26.2823 2.3893 -0.771582 11.7409 -3.55739 0 13.8798 -1.98282 3.92519 -6.10408 -2.90384 3.97789 23.5745 -0.27352 9.71895 3.81272 2.32443 13.7626 0 2.84217e-014 -13.4039 2.9276 4.41912 26.1014 -5.68434e-014 -2.84217e-014 -0.87702 0.007417 -0.972798 29.9599 0 2.84217e-014 7.80015 -0.136273 -2.13924 -3.9517 23.5745 -0.27352 -9.80945 1.44962 3.21538 -13.7626 -2.84217e-014 0 12.7186 8.02283 -3.11895 -26.1014 -2.84217e-014 0 -3.74994 -1.21813 -0.424218 -29.9599 -2.84217e-014 0 -2.77104 -1.28841 2.33024 9.91412 0 2.84217e-014 1.11144 8.77657 2.25733 0 -41.4279 2.84217e-014 1.29732 -7.71065 9.49714 1.77636e-015 -41.0254 0 0.499859 -2.93286 9.09312 0 -6.44418 14.8712 -5.96354e-016 7.95139e-016 -0 -9.91412 0 0 0.400654 4.91622 5.35413 -7.10543e-015 -41.4279 0 0.317116 -2.31443 3.0702 3.55271e-015 -41.0254 -2.84217e-014 -1.40591 -4.81089 -10.6723 -1.42109e-014 -6.44418 14.8712 -9.93923e-017 -7.95139e-016 -0 
0 0 0 0 0 -0 -27.0867 82.682 -206.521 -0.943352 -2.49338 -4.1866 -7.10543e-015 8.12958 -2.84217e-014 0.394998 2.02155 0.908383 0 26.3907 0 -0.488435 -6.04782 0.889591 7.10543e-015 26.2823 2.3893 -0.76457 11.7585 -3.55762 -7.10543e-015 13.8798 -1.98282 3.89592 -6.13137 -2.90399 3.97789 23.5745 -0.27352 9.71659 3.82217 2.32446 13.7626 0 0 -13.3894 2.91131 4.40343 26.1014 0 0 -0.879122 0.007469 -0.973503 29.9599 0 0 7.81122 -0.139421 -2.14435 -3.9517 23.5745 -0.27352 -9.80638 1.44296 3.21623 -13.7626 -2.84217e-014 0 12.7255 8.06246 -3.11642 -26.1014 2.84217e-014 -2.84217e-014 -3.76455 -1.22462 -0.429904 -29.9599 0 0 -2.76434 -1.2954 2.34792 9.91412 0 -2.84217e-014 1.11248 8.77314 2.25143 -3.55271e-015 -41.4279 0 1.29936 -7.71154 9.51087 5.32907e-015 -41.0254 0 0.496597 -2.933 9.07526 0 -6.44418 14.8712 -7.95139e-016 0 3.18055e-015 -9.91412 -1.42109e-014 -2.84217e-014 0.401316 4.92148 5.34007 0 -41.4279 2.84217e-014 0.318124 -2.33036 3.07399 0 -41.0254 0 -1.39337 -4.79834 -10.6639 -7.10543e-015 -6.44418 14.8712 -1.10348e-032 7.95139e-016 7.95139e-016 
